<svg xmlns="http://www.w3.org/2000/svg" width="68" height="68" viewBox="0 0 17.992 17.992">
  <path fill="#084f56" d="M0 0h17.99v17.99H0z"/>
  <g transform="translate(1.636 -222.178) scale(.80147)" stroke="#fff" fill="#fff">
    <path d="M13.03 291.711l.089 5.561c-2.336-.933-5.151-1.144-7.877.032l.104-5.68c.1-4.902-2.17-6.864-3.891-6.653 3.658-1.068 5.609 1.256 6.238 2.882l1.582-6.608 1.515 6.726c.317-1.87 2.431-4.1 6.13-3.167-1.854.068-3.776 2.066-3.89 6.907z" stroke-width=".557"/>
    <path d="M1.455 284.97c.024.558-.588 1.022-1.127.834-.55-.152-.794-.873-.46-1.325.296-.478 1.068-.506 1.399-.05a.874.874 0 01.188.542z" stroke-width=".595"/>
    <circle cy="280.311" cx="9.316" stroke-width=".596" r=".873"/>
    <circle cy="284.843" cx="17.782" stroke-width=".596" r=".873"/>
  </g>
</svg>
